<svg fill="none" height="499" viewBox="0 0 683 499" width="683" xmlns="http://www.w3.org/2000/svg"><path d="m312.667.800104c-2.134.266666-9.334 1.199996-16 1.999996-96 11.6-185.734 68-240.5337 150.9329-47.33333 72-65.46666 158.134-51.33333 243.6 5.06667 30.267 18.00003 70.934 26.00003 81.867 4.8 6.667 14.2666 13.333 23.7333 16.933 6.1333 2.267 9.7333 2.667 20.2667 2.267 12-.4 13.7333-.933 24-6 14.133-7.067 19.067-11.867 33.467-32.667 6.4-9.2 13.466-18.266 15.733-20.133 10.533-8.933 24.533-6.933 36 5.067 6.4 6.8 10.667 8.666 19.067 8.666 14 0 11.6 3.6 66.8-99.466 27.066-50.534 50.4-93.334 52-94.934 6.8-7.6 17.066-9.066 24.933-3.733 3.6 2.4 17.333 23.333 59.2 90.267 30 48 56.933 89.733 59.6 92.666 7.067 7.734 16.667 11.6 28.4 11.734 8.4 0 11.2-.8 30-8.534l20.667-8.533h14.666c18.934-.133 23.334 1.467 47.6 16.667 25.6 16.266 27.6 17.2 36.134 17.2 14.133 0 19.466-6.667 26.933-34.134 26.8-97.6 10-200.133-46.133-282.533-49.067-71.9999-122.667-122.6666-205.334-141.46656-26.4-5.86667-39.333-7.33334-71.2-7.866669-16.8-.266667-32.4-.133333-34.666.133333z" fill="#fff"/></svg>